<svg width="198" height="57" viewBox="0 0 198 57" fill="none" xmlns="http://www.w3.org/2000/svg">
<path d="M40.1064 23.6986C40.1064 34.7736 25.0264 54.5003 20.0532 54.5003C15.08 54.5003 0 34.7736 0 23.6986C0 18.3536 2.59117 13.2773 6 9.68262L11.5532 13.5C11.5532 13.5 8.02108 19.1697 8.05322 23.6986C8.09587 29.7076 12.5532 34.5 20.0532 34.5C27.5532 34.5 32.0532 30.3971 32.0532 23.6986C32.0532 17 28.0532 13.5 28.0532 13.5L34 9.68274C37.5337 13.298 40.1064 18.2438 40.1064 23.6986Z" fill="#1053B7"/>
<circle cx="28.4494" cy="7.93574" r="5.93574" fill="#1053B7"/>
<circle cx="11.444" cy="7.93574" r="5.93574" fill="#1053B7"/>
<path d="M60.2612 20.552H52.1972V15.8H74.1572V20.552H66.0932V41H60.2612V20.552ZM81.8413 24.188C82.5133 23.252 83.4133 22.544 84.5413 22.064C85.6933 21.584 87.0133 21.344 88.5013 21.344V26.528C87.8773 26.48 87.4573 26.456 87.2413 26.456C85.6333 26.456 84.3733 26.912 83.4613 27.824C82.5493 28.712 82.0933 30.056 82.0933 31.856V41H76.4773V21.632H81.8413V24.188ZM99.5471 21.344C102.547 21.344 104.851 22.064 106.459 23.504C108.067 24.92 108.871 27.068 108.871 29.948V41H103.615V38.588C102.559 40.388 100.591 41.288 97.7111 41.288C96.2231 41.288 94.9271 41.036 93.8231 40.532C92.7431 40.028 91.9151 39.332 91.3391 38.444C90.7631 37.556 90.4751 36.548 90.4751 35.42C90.4751 33.62 91.1471 32.204 92.4911 31.172C93.8591 30.14 95.9591 29.624 98.7911 29.624H103.255C103.255 28.4 102.883 27.464 102.139 26.816C101.395 26.144 100.279 25.808 98.7911 25.808C97.7591 25.808 96.7391 25.976 95.7311 26.312C94.7471 26.624 93.9071 27.056 93.2111 27.608L91.1951 23.684C92.2511 22.94 93.5111 22.364 94.9751 21.956C96.4631 21.548 97.9871 21.344 99.5471 21.344ZM99.1151 37.508C100.075 37.508 100.927 37.292 101.671 36.86C102.415 36.404 102.943 35.744 103.255 34.88V32.9H99.4031C97.0991 32.9 95.9471 33.656 95.9471 35.168C95.9471 35.888 96.2231 36.464 96.7751 36.896C97.3511 37.304 98.1311 37.508 99.1151 37.508ZM132.826 21.632L124.654 41H118.858L110.722 21.632H116.518L121.882 34.808L127.426 21.632H132.826ZM153.563 31.388C153.563 31.46 153.527 31.964 153.455 32.9H138.803C139.067 34.1 139.691 35.048 140.675 35.744C141.659 36.44 142.883 36.788 144.347 36.788C145.355 36.788 146.243 36.644 147.011 36.356C147.803 36.044 148.535 35.564 149.207 34.916L152.195 38.156C150.371 40.244 147.707 41.288 144.203 41.288C142.019 41.288 140.087 40.868 138.407 40.028C136.727 39.164 135.431 37.976 134.519 36.464C133.607 34.952 133.151 33.236 133.151 31.316C133.151 29.42 133.595 27.716 134.483 26.204C135.395 24.668 136.631 23.48 138.191 22.64C139.775 21.776 141.539 21.344 143.483 21.344C145.379 21.344 147.095 21.752 148.631 22.568C150.167 23.384 151.367 24.56 152.231 26.096C153.119 27.608 153.563 29.372 153.563 31.388ZM143.519 25.592C142.247 25.592 141.179 25.952 140.315 26.672C139.451 27.392 138.923 28.376 138.731 29.624H148.271C148.079 28.4 147.551 27.428 146.687 26.708C145.823 25.964 144.767 25.592 143.519 25.592ZM157.301 14.288H162.917V41H157.301V14.288ZM177.346 41.288C175.306 41.288 173.47 40.868 171.838 40.028C170.23 39.164 168.97 37.976 168.058 36.464C167.146 34.952 166.69 33.236 166.69 31.316C166.69 29.396 167.146 27.68 168.058 26.168C168.97 24.656 170.23 23.48 171.838 22.64C173.47 21.776 175.306 21.344 177.346 21.344C179.386 21.344 181.21 21.776 182.818 22.64C184.426 23.48 185.686 24.656 186.598 26.168C187.51 27.68 187.966 29.396 187.966 31.316C187.966 33.236 187.51 34.952 186.598 36.464C185.686 37.976 184.426 39.164 182.818 40.028C181.21 40.868 179.386 41.288 177.346 41.288ZM177.346 36.68C178.786 36.68 179.962 36.2 180.874 35.24C181.81 34.256 182.278 32.948 182.278 31.316C182.278 29.684 181.81 28.388 180.874 27.428C179.962 26.444 178.786 25.952 177.346 25.952C175.906 25.952 174.718 26.444 173.782 27.428C172.846 28.388 172.378 29.684 172.378 31.316C172.378 32.948 172.846 34.256 173.782 35.24C174.718 36.2 175.906 36.68 177.346 36.68Z" fill="#050D18"/>
</svg>
