<svg width="138" height="114" viewBox="0 0 138 114" fill="none" xmlns="http://www.w3.org/2000/svg">
<path d="M89.0532 21.6986C89.0532 32.7736 73.9732 52.5003 69 52.5003C64.0268 52.5003 48.9468 32.7736 48.9468 21.6986C48.9468 16.3536 51.5379 11.2773 54.9468 7.68262L60.5 11.5C60.5 11.5 56.9679 17.1697 57 21.6986C57.0427 27.7076 61.4999 32.5 69 32.5C76.5 32.5 81 28.3971 81 21.6986C81 15 77 11.5 77 11.5L82.9468 7.68274C86.4805 11.298 89.0532 16.2438 89.0532 21.6986Z" fill="#1053B7"/>
<circle cx="77.3962" cy="5.93574" r="5.93574" fill="#1053B7"/>
<circle cx="60.3908" cy="5.93574" r="5.93574" fill="#1053B7"/>
<path d="M8.208 77.3694H0.144V72.6174H22.104V77.3694H14.04V97.8174H8.208V77.3694ZM29.788 81.0054C30.46 80.0694 31.36 79.3614 32.488 78.8814C33.64 78.4014 34.96 78.1614 36.448 78.1614V83.3454C35.824 83.2974 35.404 83.2734 35.188 83.2734C33.58 83.2734 32.32 83.7294 31.408 84.6414C30.496 85.5294 30.04 86.8734 30.04 88.6734V97.8174H24.424V78.4494H29.788V81.0054ZM47.4938 78.1614C50.4938 78.1614 52.7978 78.8814 54.4058 80.3214C56.0138 81.7374 56.8178 83.8854 56.8178 86.7654V97.8174H51.5618V95.4054C50.5058 97.2054 48.5378 98.1054 45.6578 98.1054C44.1698 98.1054 42.8738 97.8534 41.7698 97.3494C40.6898 96.8454 39.8618 96.1494 39.2858 95.2614C38.7098 94.3734 38.4218 93.3654 38.4218 92.2374C38.4218 90.4374 39.0938 89.0214 40.4378 87.9894C41.8058 86.9574 43.9058 86.4414 46.7378 86.4414H51.2018C51.2018 85.2174 50.8298 84.2814 50.0858 83.6334C49.3418 82.9614 48.2258 82.6254 46.7378 82.6254C45.7058 82.6254 44.6858 82.7934 43.6778 83.1294C42.6938 83.4414 41.8538 83.8734 41.1578 84.4254L39.1418 80.5014C40.1978 79.7574 41.4578 79.1814 42.9218 78.7734C44.4098 78.3654 45.9338 78.1614 47.4938 78.1614ZM47.0618 94.3254C48.0218 94.3254 48.8738 94.1094 49.6178 93.6774C50.3618 93.2214 50.8898 92.5614 51.2018 91.6974V89.7174H47.3498C45.0458 89.7174 43.8938 90.4734 43.8938 91.9854C43.8938 92.7054 44.1698 93.2814 44.7218 93.7134C45.2978 94.1214 46.0778 94.3254 47.0618 94.3254ZM80.773 78.4494L72.601 97.8174H66.805L58.669 78.4494H64.465L69.829 91.6254L75.373 78.4494H80.773ZM101.509 88.2054C101.509 88.2774 101.473 88.7814 101.401 89.7174H86.7493C87.0133 90.9174 87.6373 91.8654 88.6213 92.5614C89.6053 93.2574 90.8293 93.6054 92.2933 93.6054C93.3013 93.6054 94.1893 93.4614 94.9573 93.1734C95.7493 92.8614 96.4813 92.3814 97.1533 91.7334L100.141 94.9734C98.3173 97.0614 95.6533 98.1054 92.1493 98.1054C89.9653 98.1054 88.0333 97.6854 86.3533 96.8454C84.6733 95.9814 83.3773 94.7934 82.4653 93.2814C81.5533 91.7694 81.0973 90.0534 81.0973 88.1334C81.0973 86.2374 81.5413 84.5334 82.4293 83.0214C83.3413 81.4854 84.5773 80.2974 86.1373 79.4574C87.7213 78.5934 89.4853 78.1614 91.4293 78.1614C93.3253 78.1614 95.0413 78.5694 96.5773 79.3854C98.1133 80.2014 99.3133 81.3774 100.177 82.9134C101.065 84.4254 101.509 86.1894 101.509 88.2054ZM91.4653 82.4094C90.1933 82.4094 89.1253 82.7694 88.2613 83.4894C87.3973 84.2094 86.8693 85.1934 86.6773 86.4414H96.2173C96.0253 85.2174 95.4973 84.2454 94.6333 83.5254C93.7693 82.7814 92.7133 82.4094 91.4653 82.4094ZM105.248 71.1054H110.864V97.8174H105.248V71.1054ZM125.292 98.1054C123.252 98.1054 121.416 97.6854 119.784 96.8454C118.176 95.9814 116.916 94.7934 116.004 93.2814C115.092 91.7694 114.636 90.0534 114.636 88.1334C114.636 86.2134 115.092 84.4974 116.004 82.9854C116.916 81.4734 118.176 80.2974 119.784 79.4574C121.416 78.5934 123.252 78.1614 125.292 78.1614C127.332 78.1614 129.156 78.5934 130.764 79.4574C132.372 80.2974 133.632 81.4734 134.544 82.9854C135.456 84.4974 135.912 86.2134 135.912 88.1334C135.912 90.0534 135.456 91.7694 134.544 93.2814C133.632 94.7934 132.372 95.9814 130.764 96.8454C129.156 97.6854 127.332 98.1054 125.292 98.1054ZM125.292 93.4974C126.732 93.4974 127.908 93.0174 128.82 92.0574C129.756 91.0734 130.224 89.7654 130.224 88.1334C130.224 86.5014 129.756 85.2054 128.82 84.2454C127.908 83.2614 126.732 82.7694 125.292 82.7694C123.852 82.7694 122.664 83.2614 121.728 84.2454C120.792 85.2054 120.324 86.5014 120.324 88.1334C120.324 89.7654 120.792 91.0734 121.728 92.0574C122.664 93.0174 123.852 93.4974 125.292 93.4974Z" fill="#050D18"/>
</svg>
